<svg version="1.1" viewBox="0 0 96 96" xmlns="http://www.w3.org/2000/svg" xmlns:xlink="http://www.w3.org/1999/xlink" id="Icons_Windmill" overflow="hidden"><path d=" M 54 86 L 42 86 L 42 72.2 C 42 68.9 44.7 66.2 48 66.2 C 51.3 66.2 54 68.9 54 72.2 L 54 86 Z M 48 33 C 50.8 33 53 35.2 53 38 C 53 40.8 50.8 43 48 43 C 45.2 43 43 40.8 43 38 C 43 35.2 45.2 33 48 33 Z M 62.4 29.2 L 84 11 L 75.4 2.4 L 59.2 21.6 L 48 8 L 36.8 21.6 L 20.6 2.4 L 12 11 L 33.6 29.2 L 31.7 48.7 L 12 65.4 L 20.6 74 L 30.3 62.5 L 28 86 L 24 86 L 24 92 L 72 92 L 72 86 L 68 86 L 65.7 62.5 L 75.4 74 L 84 65.4 L 64.3 48.8 L 62.4 29.2 Z"/></svg>